<?xml version="1.0" standalone="no"?>
<!DOCTYPE svg PUBLIC "-//W3C//DTD SVG 20010904//EN"
 "http://www.w3.org/TR/2001/REC-SVG-20010904/DTD/svg10.dtd">
<svg version="1.0" xmlns="http://www.w3.org/2000/svg"
 width="791.000000pt" height="791.000000pt" viewBox="0 0 791.000000 791.000000"
 preserveAspectRatio="xMidYMid meet">
<metadata>
Created by potrace 1.11, written by Peter Selinger 2001-2013
</metadata>
<g transform="translate(0.000000,791.000000) scale(0.100000,-0.100000)"
fill="#000000" stroke="none">
<path d="M4917 7894 c-1 -1 -49 -5 -107 -8 -107 -7 -288 -28 -392 -46 -32 -6
-70 -12 -85 -15 -15 -2 -49 -9 -77 -15 -28 -6 -61 -12 -73 -14 -76 -15 -323
-85 -463 -132 -471 -158 -940 -401 -1374 -711 -136 -97 -142 -102 -316 -244
-132 -108 -136 -111 -269 -236 -535 -498 -951 -1052 -1256 -1668 -194 -392
-316 -735 -404 -1135 -16 -74 -33 -155 -36 -180 -3 -25 -10 -70 -15 -100 -29
-177 -40 -342 -39 -570 1 -239 17 -428 54 -610 29 -148 36 -177 80 -323 24
-81 33 -108 56 -162 5 -11 18 -45 29 -75 12 -30 43 -101 70 -156 l49 -102 -23
-59 c-21 -53 -33 -95 -52 -183 -3 -14 -7 -74 -9 -135 -5 -163 26 -286 106
-423 38 -64 168 -199 214 -222 17 -8 32 -18 35 -21 18 -22 225 -85 285 -88 64
-2 184 0 210 4 68 11 173 40 225 61 l55 22 45 -23 c264 -134 653 -250 940
-280 30 -4 61 -8 68 -10 73 -24 661 -24 802 -1 14 3 50 7 80 10 30 4 84 11
120 17 36 6 76 12 90 14 14 2 61 11 105 20 44 9 87 18 96 20 8 2 46 11 83 20
37 9 72 18 79 19 69 14 380 116 522 172 252 99 607 272 757 370 21 13 40 24
44 24 6 0 50 28 247 158 150 99 451 323 487 362 3 3 18 16 34 28 168 129 475
435 677 676 13 16 29 34 34 40 6 6 33 40 60 76 28 36 53 67 56 70 15 14 157
211 236 330 254 379 483 843 623 1257 23 67 43 130 45 140 2 10 17 65 34 121
17 57 32 116 35 130 2 15 14 68 25 117 19 85 25 119 37 190 2 17 6 41 9 55 43
240 55 838 20 1019 -2 11 -7 41 -11 68 -3 26 -8 55 -9 63 -4 24 -19 105 -20
110 -1 3 -4 19 -8 35 -4 17 -9 39 -11 50 -30 155 -124 420 -214 604 l-49 98
18 45 c58 149 68 358 25 533 -44 181 -184 353 -361 442 -180 92 -426 103 -644
29 l-68 -23 -44 25 c-24 14 -89 45 -144 69 -55 24 -109 48 -120 53 -73 32
-341 114 -409 124 -21 4 -41 8 -45 10 -3 2 -24 7 -46 10 -22 3 -62 10 -90 16
-27 5 -74 12 -103 15 -29 2 -63 7 -75 10 -54 11 -530 28 -540 19z"/>
</g>
</svg>
