<?xml version="1.0" encoding="utf-8"?>
<!-- Generator: Adobe Illustrator 16.2.1, SVG Export Plug-In . SVG Version: 6.00 Build 0)  -->
<!DOCTYPE svg PUBLIC "-//W3C//DTD SVG 1.1//EN" "http://www.w3.org/Graphics/SVG/1.1/DTD/svg11.dtd">
<svg version="1.1" id="Layer_1" xmlns="http://www.w3.org/2000/svg" xmlns:xlink="http://www.w3.org/1999/xlink" x="0px" y="0px"
	 width="100px" height="100px" viewBox="0 0 100 100" enable-background="new 0 0 100 100" xml:space="preserve">
<path fill="#14365C" d="M50,4.6c-24.8,0-45,20.2-45,45s20.2,45,45,45c24.798,0,45-20.199,45-45S74.799,4.6,50,4.6z"/>
<rect fill="none" width="100" height="100"/>
<path fill="#FFFFFF" d="M62.797,64.44c-4.25,0-7.707,3.457-7.707,7.708c0,4.25,3.457,7.705,7.707,7.705s7.707-3.455,7.707-7.705
	C70.504,67.897,67.047,64.44,62.797,64.44z M62.797,75.799c-2.014,0-3.65-1.638-3.65-3.65c0-2.014,1.637-3.652,3.65-3.652
	c2.013,0,3.651,1.639,3.651,3.652C66.448,74.161,64.81,75.799,62.797,75.799z"/>
<path fill="#FFFFFF" d="M48.155,58.879c1.675,0,3.304-0.207,4.862-0.592l2.727,6.212c1.327-1.228,2.976-2.11,4.803-2.516
	l-2.498-5.694c6.169-3.471,10.346-10.08,10.346-17.648c0-1.121-0.907-2.028-2.029-2.028h-36.42c-1.12,0-2.028,0.908-2.028,2.028
	c0,7.568,4.177,14.178,10.345,17.648l-8.719,19.874c-0.6,1.367,0.022,2.962,1.39,3.561c0.354,0.157,0.722,0.229,1.085,0.229
	c1.041,0,2.033-0.604,2.478-1.619l1.539-3.506h16.702c-0.229-0.856-0.352-1.754-0.352-2.682c0-0.943,0.129-1.858,0.366-2.729H38.407
	l4.884-11.132C44.849,58.672,46.478,58.879,48.155,58.879z M32.099,40.669h6.004c0.625,6.174,3.616,11.374,7.745,13.988
	C38.674,53.63,33.005,47.879,32.099,40.669z"/>
<path fill="#FFFFFF" d="M35.177,29.677c0.172,0.485,0.4,0.926,0.657,1.33c0.26,0.403,0.549,0.769,0.864,1.103
	c0.314,0.333,0.65,0.639,1.017,0.904c0.09,0.064,0.207,0.09,0.321,0.06c0.205-0.054,0.328-0.263,0.274-0.468v0
	c-0.111-0.426-0.228-0.828-0.329-1.226c-0.099-0.396-0.188-0.782-0.248-1.155c-0.126-0.747-0.135-1.433-0.01-2.009
	c0.124-0.58,0.368-1.08,0.733-1.644c0.362-0.562,0.848-1.164,1.362-1.87c0.509-0.704,1.059-1.529,1.424-2.545
	c0.18-0.505,0.31-1.054,0.352-1.61c0.047-0.556,0.009-1.115-0.096-1.638c-0.214-1.052-0.68-1.948-1.233-2.703
	c-0.282-0.377-0.583-0.724-0.911-1.042c-0.325-0.318-0.671-0.61-1.047-0.865c-0.089-0.06-0.204-0.083-0.314-0.054
	c-0.205,0.055-0.328,0.265-0.273,0.47l0.002,0.004c0.113,0.427,0.238,0.832,0.352,1.23c0.111,0.398,0.22,0.786,0.301,1.165
	c0.173,0.755,0.262,1.473,0.222,2.094c-0.041,0.625-0.194,1.141-0.465,1.686c-0.269,0.542-0.668,1.121-1.138,1.777
	c-0.464,0.657-1.004,1.393-1.45,2.306c-0.222,0.455-0.414,0.957-0.539,1.492c-0.124,0.534-0.179,1.099-0.144,1.648
	C34.891,28.665,35.004,29.193,35.177,29.677z"/>
<path fill="#FFFFFF" d="M45.151,29.677c0.171,0.485,0.4,0.926,0.656,1.33c0.26,0.403,0.549,0.769,0.863,1.103
	c0.315,0.333,0.652,0.639,1.018,0.904c0.088,0.064,0.207,0.09,0.321,0.06c0.205-0.054,0.329-0.263,0.275-0.468l-0.002,0
	c-0.109-0.426-0.227-0.828-0.328-1.226c-0.099-0.396-0.188-0.782-0.248-1.155c-0.127-0.747-0.136-1.433-0.01-2.009
	c0.123-0.58,0.367-1.08,0.732-1.644c0.362-0.562,0.847-1.164,1.361-1.87c0.507-0.704,1.06-1.529,1.424-2.545
	c0.179-0.505,0.31-1.054,0.352-1.61c0.047-0.556,0.009-1.115-0.096-1.638c-0.216-1.052-0.681-1.948-1.233-2.703
	c-0.283-0.377-0.584-0.724-0.911-1.042c-0.327-0.318-0.67-0.61-1.047-0.865c-0.088-0.061-0.202-0.084-0.314-0.054
	c-0.205,0.055-0.326,0.264-0.272,0.47l0.001,0.004c0.113,0.427,0.237,0.832,0.352,1.23c0.111,0.398,0.218,0.786,0.302,1.165
	c0.171,0.755,0.261,1.473,0.222,2.094c-0.042,0.626-0.194,1.142-0.466,1.686c-0.268,0.543-0.667,1.121-1.137,1.777
	c-0.465,0.657-1.004,1.393-1.451,2.306c-0.221,0.456-0.414,0.957-0.539,1.492c-0.125,0.534-0.179,1.1-0.145,1.649
	C44.865,28.665,44.979,29.193,45.151,29.677z"/>
<path fill="#FFFFFF" d="M55.126,29.677c0.171,0.485,0.401,0.927,0.657,1.33c0.258,0.403,0.549,0.769,0.862,1.103
	c0.315,0.333,0.651,0.639,1.018,0.904c0.09,0.064,0.206,0.09,0.32,0.06c0.206-0.054,0.328-0.263,0.276-0.468l-0.002-0.001
	c-0.111-0.426-0.228-0.828-0.328-1.225c-0.1-0.396-0.188-0.782-0.249-1.156c-0.125-0.746-0.136-1.433-0.009-2.009
	c0.123-0.58,0.367-1.081,0.73-1.645c0.364-0.562,0.849-1.164,1.363-1.87c0.508-0.704,1.058-1.529,1.423-2.545
	c0.18-0.505,0.311-1.054,0.353-1.611c0.046-0.556,0.009-1.115-0.098-1.638c-0.213-1.053-0.679-1.949-1.232-2.704
	c-0.282-0.377-0.584-0.724-0.91-1.042c-0.327-0.318-0.671-0.61-1.049-0.865c-0.088-0.06-0.202-0.083-0.314-0.053
	c-0.203,0.055-0.326,0.264-0.271,0.47v0.004c0.114,0.427,0.237,0.832,0.352,1.23c0.112,0.398,0.22,0.786,0.301,1.165
	c0.174,0.755,0.263,1.473,0.224,2.094c-0.043,0.625-0.195,1.142-0.466,1.686c-0.268,0.542-0.668,1.12-1.139,1.777
	c-0.466,0.657-1.004,1.393-1.45,2.306c-0.223,0.455-0.413,0.957-0.538,1.492c-0.124,0.534-0.179,1.1-0.145,1.649
	S54.953,29.193,55.126,29.677z"/>
</svg>
