<?xml version="1.0" encoding="utf-8"?>
<!-- Generator: Adobe Illustrator 16.2.1, SVG Export Plug-In . SVG Version: 6.00 Build 0)  -->
<!DOCTYPE svg PUBLIC "-//W3C//DTD SVG 1.1//EN" "http://www.w3.org/Graphics/SVG/1.1/DTD/svg11.dtd">
<svg version="1.1" id="Layer_1" xmlns="http://www.w3.org/2000/svg" xmlns:xlink="http://www.w3.org/1999/xlink" x="0px" y="0px"
	 width="100px" height="100px" viewBox="0 0 100 100" enable-background="new 0 0 100 100" xml:space="preserve">
<path fill="#14365C" d="M50,4.6c-24.8,0-45,20.2-45,45s20.2,45,45,45c24.799,0,45-20.199,45-45S74.799,4.6,50,4.6z"/>
<rect fill="none" width="100" height="100"/>
<g>
	<path fill="#FFFFFF" d="M77.166,59.173v9.757h5.15V54.342H24.712V33.238c0-1.411-1.132-2.567-2.561-2.567l0,0
		c-1.412,0-2.551,1.156-2.551,2.567V68.93h5.112v-9.757H77.166z"/>
	<path fill="#FFFFFF" d="M32.576,43.525c2.56,0,4.628-2.069,4.628-4.638c0-2.551-2.069-4.62-4.628-4.62
		c-2.561,0-4.631,2.069-4.631,4.62C27.944,41.454,30.015,43.525,32.576,43.525z"/>
	<path fill="#FFFFFF" d="M82.398,50.505l-0.016-6.371c-0.016-2.022-1.717-3.417-3.689-3.658L42.324,36.85
		c-0.073-0.016-0.137-0.049-0.201-0.049c-1.259,0-2.279,1.027-2.279,2.279v6.868h-9.508c-1.275,0-2.295,1.027-2.295,2.279
		c0,1.268,1.02,2.279,2.295,2.279H82.398z"/>
</g>
</svg>
