<svg xmlns="http://www.w3.org/2000/svg" xmlns:xlink="http://www.w3.org/1999/xlink" version="1.1" id="Layer_1" x="0px" y="0px" width="100px" height="100px" viewBox="0 0 100 100" enable-background="new 0 0 100 100" xml:space="preserve">
<g>
	<path fill="#000000" d="M35.903,48.358c-2.1,0-4.2-0.847-5.115-1.357l-1.044,3.893c1.284,0.774,3.685,1.523,6.534,1.523   c5.576,0,8.996-2.843,8.996-6.7c0-2.911-2.131-4.913-4.771-5.385v-0.067c2.708-0.915,4.028-2.776,4.028-5.109   c0-3.009-2.604-5.484-7.277-5.484c-2.874,0-5.483,0.811-6.804,1.658l1.05,3.721c0.884-0.541,2.776-1.32,4.569-1.32   c2.205,0,3.249,0.982,3.249,2.303c0,1.861-2.168,2.542-3.887,2.542h-2.002v3.685h2.1c2.235,0,4.403,0.982,4.403,3.181   C39.932,47.063,38.575,48.358,35.903,48.358z"/>
	<path fill="#000000" d="M84.134,14.568v-8.44H10.266v80.181h5.625v8.45h73.85v-2.113V14.568H84.134z M53.454,41.014   c0-4.98,1.222-7.449,3.15-7.449c2.063,0,3.113,2.567,3.113,7.449c0,5.005-1.081,7.51-3.083,7.51h-0.03   C54.64,48.524,53.424,46.086,53.454,41.014z M60.934,78.909c10.04-5.742,15.819-14.947,18.981-25.279v28.454H54.382   C56.653,81.162,58.852,80.094,60.934,78.909z M49.659,80.364c6.599-5.214,9.235-13.78,6.908-23.876   c11.25,4.87,18.644-6.245,22.862-17.6c-1.541,15.948-7.62,30.735-23.021,38.773C54.311,78.755,52.018,79.615,49.659,80.364z    M14.49,10.353h65.425v14.833c-0.006,0.019-0.024,0.021-0.03,0.04c-2.162,11.06-9.261,35.905-24.115,27.1   c0.27,0.024,0.516,0.092,0.798,0.092h0.037c5.551,0,8.29-4.704,8.29-11.477c0-6.024-2.334-11.269-8.192-11.269   c-5.68,0-8.357,5.011-8.357,11.404c0.031,4.903,1.612,9.07,5.042,10.642c-0.728,0.311-1.293,1.068-1.014,1.892   c4.956,14.585-0.958,26.474-15.904,28.476H14.49V10.353z M20.115,90.533v-4.225h64.019v-2.112V18.793h1.382l0.012,71.74H20.115z"/>
</g>
</svg>