<?xml version="1.0" encoding="utf-8"?>
<!-- Generator: Adobe Illustrator 16.2.1, SVG Export Plug-In . SVG Version: 6.00 Build 0)  -->
<!DOCTYPE svg PUBLIC "-//W3C//DTD SVG 1.1//EN" "http://www.w3.org/Graphics/SVG/1.1/DTD/svg11.dtd">
<svg version="1.1" id="Layer_1" xmlns="http://www.w3.org/2000/svg" xmlns:xlink="http://www.w3.org/1999/xlink" x="0px" y="0px"
	 width="100px" height="100px" viewBox="0 0 100 100" enable-background="new 0 0 100 100" xml:space="preserve">
<g>
	<path fill="#14365C" d="M50,4.6c-24.8,0-45,20.2-45,45s20.2,45,45,45c24.798,0,45-20.199,45-45S74.799,4.6,50,4.6z"/>
	<g>
		<path fill="#FAE463" d="M61.172,34.712c-1.438,0-2.576-1.138-2.576-2.576v-6.889c0-1.438,1.139-2.576,2.576-2.576
			s2.576,1.138,2.576,2.576v6.889C63.748,33.574,62.609,34.712,61.172,34.712z"/>
		<path fill="#FAE463" d="M38.767,34.712c-1.438,0-2.576-1.138-2.576-2.576v-6.889c0-1.438,1.139-2.576,2.576-2.576
			c1.438,0,2.576,1.138,2.576,2.576v6.889C41.343,33.574,40.205,34.712,38.767,34.712z"/>
		<path fill="#FAE463" d="M27.024,33.394c0-3.595,2.936-6.53,6.53-6.53h0.959v5.212c0,2.396,1.916,4.313,4.312,4.313
			s4.313-1.917,4.313-4.313v-5.212h13.72v5.212c0,2.396,1.916,4.313,4.312,4.313s4.314-1.917,4.314-4.313v-5.212h0.957
			c3.596,0,6.531,2.935,6.531,6.53v36.665c0,3.594-2.936,6.471-6.531,6.471H49.011h-0.06c-0.061,0-0.12,0-0.18,0
			c-8.088,0-21.028-2.277-21.747-13.121c0-0.059,0-0.658,0-0.658V33.394L27.024,33.394z M40.563,71.855
			c-0.358-0.359-1.078-1.736-1.258-1.977c-1.317-2.336-1.797-4.973-1.438-7.908l-6.77,1.916
			C31.458,67.182,36.37,71.137,40.563,71.855z M30.919,59.873l9.046-2.576c0.659-0.179,1.438,0,1.917,0.48
			c0.479,0.539,0.659,1.258,0.479,1.916c-1.019,3.236-0.839,5.932,0.359,8.148c1.917,4.312,5.152,4.793,6.29,4.793h17.433
			c1.439,0,2.576-1.139,2.576-2.576V42.74H30.919V59.873z"/>
	</g>
</g>
<rect fill="none" width="100" height="100"/>
</svg>
