<?xml version="1.0" encoding="utf-8"?>
<!-- Generator: Adobe Illustrator 16.2.1, SVG Export Plug-In . SVG Version: 6.00 Build 0)  -->
<!DOCTYPE svg PUBLIC "-//W3C//DTD SVG 1.1//EN" "http://www.w3.org/Graphics/SVG/1.1/DTD/svg11.dtd">
<svg version="1.1" id="Layer_1" xmlns="http://www.w3.org/2000/svg" xmlns:xlink="http://www.w3.org/1999/xlink" x="0px" y="0px"
	 width="100px" height="100px" viewBox="0 0 100 100" enable-background="new 0 0 100 100" xml:space="preserve">
<path fill="#14365C" d="M50.24,4.6c-24.8,0-45,20.2-45,45s20.2,45,45,45c24.799,0,45-20.199,45-45S75.039,4.6,50.24,4.6z"/>
<rect x="0.24" fill="none" width="100" height="100"/>
<path fill="#FFFFFF" d="M59.723,34.66c-2.604,0-4.713-2.11-4.713-4.713c0-2.604,2.109-4.713,4.713-4.713
	c2.603,0,4.713,2.109,4.713,4.713S62.325,34.66,59.723,34.66 M59.723,47.154c0,0,9.792-12.217,9.792-17.625
	s-4.384-9.792-9.792-9.792s-9.792,4.384-9.792,9.792C49.93,34.938,59.723,47.154,59.723,47.154 M36.938,70.727l-10.181-4.195V37.375
	l10.181,4.192V70.727z M75.292,70.119V33.24l-3.685-1.961c-0.28,1.04-0.725,2.169-1.277,3.336l1.392,1.017v29.155l-10.181-4.189
	V47.381c-0.364,0.474-0.635,0.813-0.769,0.979l-1.05,1.311l-1.05-1.311c-0.125-0.156-0.372-0.464-0.7-0.89v14.591l-17.466,7.195
	V40.1l9.224-3.166c-0.581-1.116-1.087-2.214-1.468-3.256l-11.324,4.028l-13.751-5.66v36.878l13.751,5.664l24.603-10.133v0.002
	L75.292,70.119z"/>
</svg>
