<?xml version="1.0" encoding="utf-8"?>
<!-- Generator: Adobe Illustrator 16.2.1, SVG Export Plug-In . SVG Version: 6.00 Build 0)  -->
<!DOCTYPE svg PUBLIC "-//W3C//DTD SVG 1.1//EN" "http://www.w3.org/Graphics/SVG/1.1/DTD/svg11.dtd">
<svg version="1.1" id="Layer_1" xmlns="http://www.w3.org/2000/svg" xmlns:xlink="http://www.w3.org/1999/xlink" x="0px" y="0px"
	 width="100px" height="100px" viewBox="0 0 100 100" enable-background="new 0 0 100 100" xml:space="preserve">
<g>
	<path fill="#FFFFFF" d="M65.227,80.977c-0.135,0-0.271-0.019-0.402-0.056c-0.521-0.146-0.924-0.562-1.055-1.087l-6.291-25.616
		l-17.149,12.45l0.79,9.215c0.038,0.44-0.121,0.876-0.434,1.188l-2.794,2.796c-0.354,0.354-0.86,0.507-1.351,0.411
		c-0.491-0.098-0.901-0.432-1.094-0.895l-3.34-7.986c-0.71-0.097-1.457-0.312-2.324-1.179c-0.868-0.866-1.082-1.614-1.178-2.325
		l-7.988-3.338c-0.461-0.193-0.796-0.604-0.893-1.095c-0.097-0.489,0.058-0.997,0.411-1.351l2.795-2.795
		c0.312-0.312,0.746-0.478,1.189-0.435l9.214,0.79l12.45-17.149l-25.617-6.292c-0.526-0.129-0.941-0.532-1.087-1.053
		s0.001-1.081,0.384-1.464l5.486-5.486c0.295-0.295,0.698-0.448,1.116-0.438l34.843,1.293l9.235-8.213
		c1.198-1.19,2.787-1.845,4.478-1.845c1.696,0,3.294,0.661,4.493,1.861c2.474,2.474,2.478,6.496,0.014,8.975l-8.209,9.232
		l1.294,34.843c0.017,0.418-0.144,0.821-0.438,1.116l-5.486,5.485C66.002,80.822,65.619,80.977,65.227,80.977z M58.402,50.193
		c0.174,0,0.349,0.03,0.516,0.091c0.469,0.172,0.822,0.565,0.941,1.051l6.188,25.198l3.142-3.143L67.898,38.6
		c-0.016-0.386,0.121-0.764,0.377-1.052l8.646-9.724c0.028-0.032,0.059-0.063,0.09-0.093c1.289-1.31,1.282-3.425-0.019-4.727
		c-1.265-1.264-3.47-1.269-4.737-0.007c-0.025,0.027-0.055,0.055-0.082,0.079l-9.723,8.646c-0.29,0.257-0.669,0.387-1.053,0.378
		l-34.792-1.291l-3.142,3.141l25.199,6.189c0.485,0.119,0.879,0.472,1.051,0.941c0.171,0.469,0.099,0.993-0.195,1.397L35.263,62.12
		c-0.309,0.426-0.812,0.666-1.342,0.612l-9.363-0.803l-0.719,0.719l6.74,2.817c0.498,0.208,0.846,0.668,0.911,1.203l0.05,0.465
		c0.066,0.663,0.066,0.663,0.365,0.964c0.299,0.299,0.299,0.299,0.962,0.364l0.464,0.05c0.536,0.065,0.995,0.413,1.203,0.911
		l2.818,6.739l0.719-0.721l-0.803-9.362c-0.045-0.522,0.188-1.033,0.613-1.343l19.641-14.258
		C57.781,50.291,58.09,50.193,58.402,50.193z"/>
</g>
</svg>
