<?xml version="1.0" encoding="utf-8"?>
<!-- Generator: Adobe Illustrator 16.2.1, SVG Export Plug-In . SVG Version: 6.00 Build 0)  -->
<!DOCTYPE svg PUBLIC "-//W3C//DTD SVG 1.1//EN" "http://www.w3.org/Graphics/SVG/1.1/DTD/svg11.dtd">
<svg version="1.1" id="Layer_1" xmlns="http://www.w3.org/2000/svg" xmlns:xlink="http://www.w3.org/1999/xlink" x="0px" y="0px"
	 width="100px" height="100px" viewBox="0 0 100 100" enable-background="new 0 0 100 100" xml:space="preserve">
<path fill="#14365C" d="M50.24,4.6c-24.8,0-45,20.2-45,45s20.2,45,45,45c24.799,0,45-20.199,45-45S75.039,4.6,50.24,4.6z"/>
<rect x="0.24" fill="none" width="100" height="100"/>
<path fill="#FFFFFF" d="M32.732,21.956l-4.589,2.152l20.398,20.159l-15.494,8.239l-8.862-4.741l-3.167,1.509l7.408,7.96
	l1.812,10.699l3.166-1.509l1.692-9.771l16.263-6.683l3.418,28.038l4.59-2.151l5.427-31.789c3.062-1.391,7.487-3.537,10.521-4.983
	c3.789-1.806,4.739-4.05,3.819-5.911c-0.92-1.861-3.359-2.633-7.147-0.827c-3.035,1.447-7.434,3.647-10.441,5.15L33.42,21.592"/>
</svg>
