<?xml version="1.0" encoding="utf-8"?>
<!-- Generator: Adobe Illustrator 16.2.1, SVG Export Plug-In . SVG Version: 6.00 Build 0)  -->
<!DOCTYPE svg PUBLIC "-//W3C//DTD SVG 1.1//EN" "http://www.w3.org/Graphics/SVG/1.1/DTD/svg11.dtd">
<svg version="1.1" id="Layer_1" xmlns="http://www.w3.org/2000/svg" xmlns:xlink="http://www.w3.org/1999/xlink" x="0px" y="0px"
	 width="100px" height="100px" viewBox="0 0 100 100" enable-background="new 0 0 100 100" xml:space="preserve">
<ellipse fill="#FFFFFF" cx="52.458" cy="50.292" rx="25.292" ry="22.792"/>
<path fill="#00345D" d="M50,4.6c-24.8,0-45,20.2-45,45s20.2,45,45,45s45-20.199,45-45S74.8,4.6,50,4.6z M66.6,53.3H60l-10.3,14
	c-0.2,0.3-0.6,0.5-1,0.5h-0.2c-0.4,0-0.7-0.2-1-0.5c-0.2-0.3-0.3-0.7-0.2-1l3.5-13h-2.3h-7.8l-3.1,4.3c-0.2,0.301-0.6,0.5-1,0.5
	h-0.2c-0.4,0-0.7-0.199-1-0.5c-0.2-0.3-0.3-0.699-0.2-1.1l2.3-6.9l-2.4-6.9c-0.1-0.4,0-0.8,0.2-1.1c0.2-0.3,0.6-0.5,1-0.5h0.2
	c0.4,0,0.8,0.2,1,0.5l3.1,4.3h7.8h2.3l-3.5-13c-0.1-0.4,0-0.7,0.2-1c0.2-0.3,0.6-0.5,1-0.5h0.2c0.4,0,0.8,0.2,1,0.5l10.3,14h6.6
	c1.8,0,7.3,1.8,7.3,3.6S68.4,53.3,66.6,53.3z"/>
</svg>
