<?xml version="1.0" encoding="utf-8"?>
<!-- Generator: Adobe Illustrator 16.2.1, SVG Export Plug-In . SVG Version: 6.00 Build 0)  -->
<!DOCTYPE svg PUBLIC "-//W3C//DTD SVG 1.1//EN" "http://www.w3.org/Graphics/SVG/1.1/DTD/svg11.dtd">
<svg version="1.1" id="Layer_1" xmlns="http://www.w3.org/2000/svg" xmlns:xlink="http://www.w3.org/1999/xlink" x="0px" y="0px"
	 width="100px" height="100px" viewBox="0 0 100 100" enable-background="new 0 0 100 100" xml:space="preserve">
<path fill="#14365C" d="M50,4.6c-24.8,0-45,20.2-45,45s20.2,45,45,45c24.798,0,45-20.199,45-45C95,24.799,74.799,4.6,50,4.6z"/>
<rect fill="none" width="100" height="100"/>
<g id="Your_Icon">
	<path fill="#FFFFFF" d="M68.883,31.297c0.827-1.995,1.572-6.012-2.906-10.491c-2.355-2.355-4.839-3.55-7.406-3.55
		c-2.814,0-5.298,1.452-7.25,3.975l-1.121-0.648c-0.324-0.188-0.85-0.188-1.174,0l-1.121,0.648
		c-1.952-2.522-4.441-3.975-7.254-3.975c-2.567,0-5.062,1.194-7.419,3.55c-4.478,4.479-3.76,8.496-2.933,10.491
		c0.012,0.027,0.129,0.052,0.141,0.078l-7.401,4.299c-0.323,0.189-0.636,0.646-0.636,1.02v28.332c0,0.374,0.313,0.831,0.637,1.019
		l25.968,15.091c0.323,0.188,0.861,0.188,1.183,0L76.19,66.045c0.324-0.188,0.644-0.645,0.644-1.019v-29.01l-7.987-4.641
		C68.857,31.349,68.873,31.324,68.883,31.297z M49.617,49.44l-7.897-4.559l7.897-4.56l7.898,4.56L49.617,49.44z M52.707,32.276
		c0.291-1.83,0.73-3.452,1.279-4.812l3.529,2.036L52.707,32.276z M46.526,32.275L41.72,29.5l3.527-2.037
		C45.795,28.824,46.237,30.446,46.526,32.275z M41.196,38.922l-4.899,2.828l-7.898-4.561l4.329-2.5
		C34.747,36.581,37.666,38.037,41.196,38.922z M47.626,52.962v22.645l-7.965-4.56V48.403L47.626,52.962z M51.608,52.964l7.966-4.561
		v22.645l-7.966,4.559V52.964z M62.938,41.751l-4.901-2.829c3.531-0.885,6.45-2.341,8.469-4.232l4.331,2.5L62.938,41.751z
		 M58.583,22.68c1.063,0,2.301,0.678,3.583,1.961c1.453,1.453,2.091,2.78,1.921,3.957l-8.005-4.621
		C56.881,23.134,57.741,22.68,58.583,22.68z M37.067,24.641c1.284-1.284,2.523-1.962,3.584-1.962c0.843,0,1.701,0.455,2.501,1.297
		l-8.006,4.622C34.977,27.421,35.614,26.094,37.067,24.641z M26.384,40.713l7.966,4.56v22.644l-7.966-4.562V40.713z M64.886,67.917
		V45.273l7.965-4.561v22.643L64.886,67.917z"/>
</g>
</svg>
